# xmcd
#
# Track frame offsets:
#	150
#	16380
#	46255
#	75432
#
# Disc length: 1272 seconds
#
# Revision: 1
# Processed by: cddbd v1.5.2PL0 Copyright (c) Steve Scherf et al.
# Submitted via: audiograbber 1.83.01
#
DISCID=2004f604
DTITLE=Ego 7 - I Got To Hold On
DYEAR=1997
DGENRE=Trance
TTITLE0=I Got To Hold On (Radio Mix)
TTITLE1=I Got To Hold On (Rescue Mix)
TTITLE2=I Got To Hold On (DJ The Crow Remix)
TTITLE3=I Got To Hold On (Deinemeit Mix)
EXTD=
EXTT0=
EXTT1=
EXTT2=
EXTT3=
PLAYORDER=
